<?xml version="1.0" standalone="no"?>
<!DOCTYPE svg PUBLIC "-//W3C//DTD SVG 1.1//EN" "http://www.w3.org/Graphics/SVG/1.1/DTD/svg11.dtd" >
<svg xmlns="http://www.w3.org/2000/svg" xmlns:xlink="http://www.w3.org/1999/xlink" version="1.1">
<metadata>
Created by FontForge 20170924 at Mon Feb  5 13:28:36 2018
 By www-data
\(c\) 2018
</metadata>
<defs>
<font id="FONTSPRINGDEMO-IntervogueAltBoldRegular" horiz-adv-x="598" >
  <font-face 
    font-family="FONTSPRING DEMO - Intervogue Alt Bold"
    font-weight="700"
    font-stretch="normal"
    units-per-em="1000"
    panose-1="0 0 8 0 0 0 0 0 0 0"
    ascent="800"
    descent="-200"
    x-height="463"
    cap-height="715"
    bbox="-5 -235 1035 755"
    underline-thickness="50"
    underline-position="-100"
    stemh="715"
    stemv="29"
    unicode-range="U+0020-007E"
  />
<missing-glyph 
d="M101 197c-3 0 -6 0 -9 -1v-98c2 -1 6 -1 9 -1c26 0 31 19 31 50c0 32 -5 50 -31 50v0zM253 161v-24h-40v-38h47v-24h-76v145h76v-25h-47v-34h40zM99 73c-8 0 -23 0 -36 2v143c13 2 27 4 37 4c45 0 61 -25 61 -75c0 -51 -17 -74 -62 -74v0zM286 220h39l19 -80l19 80h40
c2 -35 4 -98 6 -145h-29c0 34 -1 70 -3 104l-20 -82h-27l-20 82h-1c-1 -34 -2 -70 -2 -104h-28c1 47 4 110 7 145v0zM482 73c-40 0 -53 23 -53 74s13 75 53 75s54 -24 54 -75s-14 -74 -54 -74v0zM482 197c-20 0 -24 -17 -24 -50c0 -32 4 -50 24 -50c21 0 25 18 25 50
c0 33 -4 50 -25 50zM472 496c52 0 62 -42 62 -63c0 -31 -31 -49 -52 -52c-72 -8 -124 -31 -166 -72c0 0 73 187 156 187v0zM139 444c94 0 156 -187 156 -187c-41 52 -93 72 -156 72c-31 0 -62 21 -62 52c0 32 21 63 62 63v0zM314 593c67 -65 -19 -243 -19 -243
c7 66 -16 118 -61 161c-22 22 -30 58 -9 81c22 22 59 30 89 1v0z" />
    <glyph glyph-name=".notdef" 
d="M101 197c-3 0 -6 0 -9 -1v-98c2 -1 6 -1 9 -1c26 0 31 19 31 50c0 32 -5 50 -31 50v0zM253 161v-24h-40v-38h47v-24h-76v145h76v-25h-47v-34h40zM99 73c-8 0 -23 0 -36 2v143c13 2 27 4 37 4c45 0 61 -25 61 -75c0 -51 -17 -74 -62 -74v0zM286 220h39l19 -80l19 80h40
c2 -35 4 -98 6 -145h-29c0 34 -1 70 -3 104l-20 -82h-27l-20 82h-1c-1 -34 -2 -70 -2 -104h-28c1 47 4 110 7 145v0zM482 73c-40 0 -53 23 -53 74s13 75 53 75s54 -24 54 -75s-14 -74 -54 -74v0zM482 197c-20 0 -24 -17 -24 -50c0 -32 4 -50 24 -50c21 0 25 18 25 50
c0 33 -4 50 -25 50zM472 496c52 0 62 -42 62 -63c0 -31 -31 -49 -52 -52c-72 -8 -124 -31 -166 -72c0 0 73 187 156 187v0zM139 444c94 0 156 -187 156 -187c-41 52 -93 72 -156 72c-31 0 -62 21 -62 52c0 32 21 63 62 63v0zM314 593c67 -65 -19 -243 -19 -243
c7 66 -16 118 -61 161c-22 22 -30 58 -9 81c22 22 59 30 89 1v0z" />
    <glyph glyph-name="space" unicode=" " horiz-adv-x="300" 
 />
    <glyph glyph-name="exclam" unicode="!" 
d="M101 197c-3 0 -6 0 -9 -1v-98c2 -1 6 -1 9 -1c26 0 31 19 31 50c0 32 -5 50 -31 50v0zM253 161v-24h-40v-38h47v-24h-76v145h76v-25h-47v-34h40zM99 73c-8 0 -23 0 -36 2v143c13 2 27 4 37 4c45 0 61 -25 61 -75c0 -51 -17 -74 -62 -74v0zM286 220h39l19 -80l19 80h40
c2 -35 4 -98 6 -145h-29c0 34 -1 70 -3 104l-20 -82h-27l-20 82h-1c-1 -34 -2 -70 -2 -104h-28c1 47 4 110 7 145v0zM482 73c-40 0 -53 23 -53 74s13 75 53 75s54 -24 54 -75s-14 -74 -54 -74v0zM482 197c-20 0 -24 -17 -24 -50c0 -32 4 -50 24 -50c21 0 25 18 25 50
c0 33 -4 50 -25 50zM472 496c52 0 62 -42 62 -63c0 -31 -31 -49 -52 -52c-72 -8 -124 -31 -166 -72c0 0 73 187 156 187v0zM139 444c94 0 156 -187 156 -187c-41 52 -93 72 -156 72c-31 0 -62 21 -62 52c0 32 21 63 62 63v0zM314 593c67 -65 -19 -243 -19 -243
c7 66 -16 118 -61 161c-22 22 -30 58 -9 81c22 22 59 30 89 1v0z" />
    <glyph glyph-name="quotedbl" unicode="&#x22;" 
d="M101 197c-3 0 -6 0 -9 -1v-98c2 -1 6 -1 9 -1c26 0 31 19 31 50c0 32 -5 50 -31 50v0zM253 161v-24h-40v-38h47v-24h-76v145h76v-25h-47v-34h40zM99 73c-8 0 -23 0 -36 2v143c13 2 27 4 37 4c45 0 61 -25 61 -75c0 -51 -17 -74 -62 -74v0zM286 220h39l19 -80l19 80h40
c2 -35 4 -98 6 -145h-29c0 34 -1 70 -3 104l-20 -82h-27l-20 82h-1c-1 -34 -2 -70 -2 -104h-28c1 47 4 110 7 145v0zM482 73c-40 0 -53 23 -53 74s13 75 53 75s54 -24 54 -75s-14 -74 -54 -74v0zM482 197c-20 0 -24 -17 -24 -50c0 -32 4 -50 24 -50c21 0 25 18 25 50
c0 33 -4 50 -25 50zM472 496c52 0 62 -42 62 -63c0 -31 -31 -49 -52 -52c-72 -8 -124 -31 -166 -72c0 0 73 187 156 187v0zM139 444c94 0 156 -187 156 -187c-41 52 -93 72 -156 72c-31 0 -62 21 -62 52c0 32 21 63 62 63v0zM314 593c67 -65 -19 -243 -19 -243
c7 66 -16 118 -61 161c-22 22 -30 58 -9 81c22 22 59 30 89 1v0z" />
    <glyph glyph-name="numbersign" unicode="#" 
d="M101 197c-3 0 -6 0 -9 -1v-98c2 -1 6 -1 9 -1c26 0 31 19 31 50c0 32 -5 50 -31 50v0zM253 161v-24h-40v-38h47v-24h-76v145h76v-25h-47v-34h40zM99 73c-8 0 -23 0 -36 2v143c13 2 27 4 37 4c45 0 61 -25 61 -75c0 -51 -17 -74 -62 -74v0zM286 220h39l19 -80l19 80h40
c2 -35 4 -98 6 -145h-29c0 34 -1 70 -3 104l-20 -82h-27l-20 82h-1c-1 -34 -2 -70 -2 -104h-28c1 47 4 110 7 145v0zM482 73c-40 0 -53 23 -53 74s13 75 53 75s54 -24 54 -75s-14 -74 -54 -74v0zM482 197c-20 0 -24 -17 -24 -50c0 -32 4 -50 24 -50c21 0 25 18 25 50
c0 33 -4 50 -25 50zM472 496c52 0 62 -42 62 -63c0 -31 -31 -49 -52 -52c-72 -8 -124 -31 -166 -72c0 0 73 187 156 187v0zM139 444c94 0 156 -187 156 -187c-41 52 -93 72 -156 72c-31 0 -62 21 -62 52c0 32 21 63 62 63v0zM314 593c67 -65 -19 -243 -19 -243
c7 66 -16 118 -61 161c-22 22 -30 58 -9 81c22 22 59 30 89 1v0z" />
    <glyph glyph-name="dollar" unicode="$" 
d="M101 197c-3 0 -6 0 -9 -1v-98c2 -1 6 -1 9 -1c26 0 31 19 31 50c0 32 -5 50 -31 50v0zM253 161v-24h-40v-38h47v-24h-76v145h76v-25h-47v-34h40zM99 73c-8 0 -23 0 -36 2v143c13 2 27 4 37 4c45 0 61 -25 61 -75c0 -51 -17 -74 -62 -74v0zM286 220h39l19 -80l19 80h40
c2 -35 4 -98 6 -145h-29c0 34 -1 70 -3 104l-20 -82h-27l-20 82h-1c-1 -34 -2 -70 -2 -104h-28c1 47 4 110 7 145v0zM482 73c-40 0 -53 23 -53 74s13 75 53 75s54 -24 54 -75s-14 -74 -54 -74v0zM482 197c-20 0 -24 -17 -24 -50c0 -32 4 -50 24 -50c21 0 25 18 25 50
c0 33 -4 50 -25 50zM472 496c52 0 62 -42 62 -63c0 -31 -31 -49 -52 -52c-72 -8 -124 -31 -166 -72c0 0 73 187 156 187v0zM139 444c94 0 156 -187 156 -187c-41 52 -93 72 -156 72c-31 0 -62 21 -62 52c0 32 21 63 62 63v0zM314 593c67 -65 -19 -243 -19 -243
c7 66 -16 118 -61 161c-22 22 -30 58 -9 81c22 22 59 30 89 1v0z" />
    <glyph glyph-name="percent" unicode="%" 
d="M101 197c-3 0 -6 0 -9 -1v-98c2 -1 6 -1 9 -1c26 0 31 19 31 50c0 32 -5 50 -31 50v0zM253 161v-24h-40v-38h47v-24h-76v145h76v-25h-47v-34h40zM99 73c-8 0 -23 0 -36 2v143c13 2 27 4 37 4c45 0 61 -25 61 -75c0 -51 -17 -74 -62 -74v0zM286 220h39l19 -80l19 80h40
c2 -35 4 -98 6 -145h-29c0 34 -1 70 -3 104l-20 -82h-27l-20 82h-1c-1 -34 -2 -70 -2 -104h-28c1 47 4 110 7 145v0zM482 73c-40 0 -53 23 -53 74s13 75 53 75s54 -24 54 -75s-14 -74 -54 -74v0zM482 197c-20 0 -24 -17 -24 -50c0 -32 4 -50 24 -50c21 0 25 18 25 50
c0 33 -4 50 -25 50zM472 496c52 0 62 -42 62 -63c0 -31 -31 -49 -52 -52c-72 -8 -124 -31 -166 -72c0 0 73 187 156 187v0zM139 444c94 0 156 -187 156 -187c-41 52 -93 72 -156 72c-31 0 -62 21 -62 52c0 32 21 63 62 63v0zM314 593c67 -65 -19 -243 -19 -243
c7 66 -16 118 -61 161c-22 22 -30 58 -9 81c22 22 59 30 89 1v0z" />
    <glyph glyph-name="ampersand" unicode="&#x26;" 
d="M101 197c-3 0 -6 0 -9 -1v-98c2 -1 6 -1 9 -1c26 0 31 19 31 50c0 32 -5 50 -31 50v0zM253 161v-24h-40v-38h47v-24h-76v145h76v-25h-47v-34h40zM99 73c-8 0 -23 0 -36 2v143c13 2 27 4 37 4c45 0 61 -25 61 -75c0 -51 -17 -74 -62 -74v0zM286 220h39l19 -80l19 80h40
c2 -35 4 -98 6 -145h-29c0 34 -1 70 -3 104l-20 -82h-27l-20 82h-1c-1 -34 -2 -70 -2 -104h-28c1 47 4 110 7 145v0zM482 73c-40 0 -53 23 -53 74s13 75 53 75s54 -24 54 -75s-14 -74 -54 -74v0zM482 197c-20 0 -24 -17 -24 -50c0 -32 4 -50 24 -50c21 0 25 18 25 50
c0 33 -4 50 -25 50zM472 496c52 0 62 -42 62 -63c0 -31 -31 -49 -52 -52c-72 -8 -124 -31 -166 -72c0 0 73 187 156 187v0zM139 444c94 0 156 -187 156 -187c-41 52 -93 72 -156 72c-31 0 -62 21 -62 52c0 32 21 63 62 63v0zM314 593c67 -65 -19 -243 -19 -243
c7 66 -16 118 -61 161c-22 22 -30 58 -9 81c22 22 59 30 89 1v0z" />
    <glyph glyph-name="quotesingle" unicode="'" 
d="M101 197c-3 0 -6 0 -9 -1v-98c2 -1 6 -1 9 -1c26 0 31 19 31 50c0 32 -5 50 -31 50v0zM253 161v-24h-40v-38h47v-24h-76v145h76v-25h-47v-34h40zM99 73c-8 0 -23 0 -36 2v143c13 2 27 4 37 4c45 0 61 -25 61 -75c0 -51 -17 -74 -62 -74v0zM286 220h39l19 -80l19 80h40
c2 -35 4 -98 6 -145h-29c0 34 -1 70 -3 104l-20 -82h-27l-20 82h-1c-1 -34 -2 -70 -2 -104h-28c1 47 4 110 7 145v0zM482 73c-40 0 -53 23 -53 74s13 75 53 75s54 -24 54 -75s-14 -74 -54 -74v0zM482 197c-20 0 -24 -17 -24 -50c0 -32 4 -50 24 -50c21 0 25 18 25 50
c0 33 -4 50 -25 50zM472 496c52 0 62 -42 62 -63c0 -31 -31 -49 -52 -52c-72 -8 -124 -31 -166 -72c0 0 73 187 156 187v0zM139 444c94 0 156 -187 156 -187c-41 52 -93 72 -156 72c-31 0 -62 21 -62 52c0 32 21 63 62 63v0zM314 593c67 -65 -19 -243 -19 -243
c7 66 -16 118 -61 161c-22 22 -30 58 -9 81c22 22 59 30 89 1v0z" />
    <glyph glyph-name="parenleft" unicode="(" 
d="M101 197c-3 0 -6 0 -9 -1v-98c2 -1 6 -1 9 -1c26 0 31 19 31 50c0 32 -5 50 -31 50v0zM253 161v-24h-40v-38h47v-24h-76v145h76v-25h-47v-34h40zM99 73c-8 0 -23 0 -36 2v143c13 2 27 4 37 4c45 0 61 -25 61 -75c0 -51 -17 -74 -62 -74v0zM286 220h39l19 -80l19 80h40
c2 -35 4 -98 6 -145h-29c0 34 -1 70 -3 104l-20 -82h-27l-20 82h-1c-1 -34 -2 -70 -2 -104h-28c1 47 4 110 7 145v0zM482 73c-40 0 -53 23 -53 74s13 75 53 75s54 -24 54 -75s-14 -74 -54 -74v0zM482 197c-20 0 -24 -17 -24 -50c0 -32 4 -50 24 -50c21 0 25 18 25 50
c0 33 -4 50 -25 50zM472 496c52 0 62 -42 62 -63c0 -31 -31 -49 -52 -52c-72 -8 -124 -31 -166 -72c0 0 73 187 156 187v0zM139 444c94 0 156 -187 156 -187c-41 52 -93 72 -156 72c-31 0 -62 21 -62 52c0 32 21 63 62 63v0zM314 593c67 -65 -19 -243 -19 -243
c7 66 -16 118 -61 161c-22 22 -30 58 -9 81c22 22 59 30 89 1v0z" />
    <glyph glyph-name="parenright" unicode=")" 
d="M101 197c-3 0 -6 0 -9 -1v-98c2 -1 6 -1 9 -1c26 0 31 19 31 50c0 32 -5 50 -31 50v0zM253 161v-24h-40v-38h47v-24h-76v145h76v-25h-47v-34h40zM99 73c-8 0 -23 0 -36 2v143c13 2 27 4 37 4c45 0 61 -25 61 -75c0 -51 -17 -74 -62 -74v0zM286 220h39l19 -80l19 80h40
c2 -35 4 -98 6 -145h-29c0 34 -1 70 -3 104l-20 -82h-27l-20 82h-1c-1 -34 -2 -70 -2 -104h-28c1 47 4 110 7 145v0zM482 73c-40 0 -53 23 -53 74s13 75 53 75s54 -24 54 -75s-14 -74 -54 -74v0zM482 197c-20 0 -24 -17 -24 -50c0 -32 4 -50 24 -50c21 0 25 18 25 50
c0 33 -4 50 -25 50zM472 496c52 0 62 -42 62 -63c0 -31 -31 -49 -52 -52c-72 -8 -124 -31 -166 -72c0 0 73 187 156 187v0zM139 444c94 0 156 -187 156 -187c-41 52 -93 72 -156 72c-31 0 -62 21 -62 52c0 32 21 63 62 63v0zM314 593c67 -65 -19 -243 -19 -243
c7 66 -16 118 -61 161c-22 22 -30 58 -9 81c22 22 59 30 89 1v0z" />
    <glyph glyph-name="asterisk" unicode="*" 
d="M101 197c-3 0 -6 0 -9 -1v-98c2 -1 6 -1 9 -1c26 0 31 19 31 50c0 32 -5 50 -31 50v0zM253 161v-24h-40v-38h47v-24h-76v145h76v-25h-47v-34h40zM99 73c-8 0 -23 0 -36 2v143c13 2 27 4 37 4c45 0 61 -25 61 -75c0 -51 -17 -74 -62 -74v0zM286 220h39l19 -80l19 80h40
c2 -35 4 -98 6 -145h-29c0 34 -1 70 -3 104l-20 -82h-27l-20 82h-1c-1 -34 -2 -70 -2 -104h-28c1 47 4 110 7 145v0zM482 73c-40 0 -53 23 -53 74s13 75 53 75s54 -24 54 -75s-14 -74 -54 -74v0zM482 197c-20 0 -24 -17 -24 -50c0 -32 4 -50 24 -50c21 0 25 18 25 50
c0 33 -4 50 -25 50zM472 496c52 0 62 -42 62 -63c0 -31 -31 -49 -52 -52c-72 -8 -124 -31 -166 -72c0 0 73 187 156 187v0zM139 444c94 0 156 -187 156 -187c-41 52 -93 72 -156 72c-31 0 -62 21 -62 52c0 32 21 63 62 63v0zM314 593c67 -65 -19 -243 -19 -243
c7 66 -16 118 -61 161c-22 22 -30 58 -9 81c22 22 59 30 89 1v0z" />
    <glyph glyph-name="plus" unicode="+" 
d="M101 197c-3 0 -6 0 -9 -1v-98c2 -1 6 -1 9 -1c26 0 31 19 31 50c0 32 -5 50 -31 50v0zM253 161v-24h-40v-38h47v-24h-76v145h76v-25h-47v-34h40zM99 73c-8 0 -23 0 -36 2v143c13 2 27 4 37 4c45 0 61 -25 61 -75c0 -51 -17 -74 -62 -74v0zM286 220h39l19 -80l19 80h40
c2 -35 4 -98 6 -145h-29c0 34 -1 70 -3 104l-20 -82h-27l-20 82h-1c-1 -34 -2 -70 -2 -104h-28c1 47 4 110 7 145v0zM482 73c-40 0 -53 23 -53 74s13 75 53 75s54 -24 54 -75s-14 -74 -54 -74v0zM482 197c-20 0 -24 -17 -24 -50c0 -32 4 -50 24 -50c21 0 25 18 25 50
c0 33 -4 50 -25 50zM472 496c52 0 62 -42 62 -63c0 -31 -31 -49 -52 -52c-72 -8 -124 -31 -166 -72c0 0 73 187 156 187v0zM139 444c94 0 156 -187 156 -187c-41 52 -93 72 -156 72c-31 0 -62 21 -62 52c0 32 21 63 62 63v0zM314 593c67 -65 -19 -243 -19 -243
c7 66 -16 118 -61 161c-22 22 -30 58 -9 81c22 22 59 30 89 1v0z" />
    <glyph glyph-name="comma" unicode="," horiz-adv-x="268" 
d="M50 -150l24 300h131l-40 -300h-115z" />
    <glyph glyph-name="hyphen" unicode="-" 
d="M101 197c-3 0 -6 0 -9 -1v-98c2 -1 6 -1 9 -1c26 0 31 19 31 50c0 32 -5 50 -31 50v0zM253 161v-24h-40v-38h47v-24h-76v145h76v-25h-47v-34h40zM99 73c-8 0 -23 0 -36 2v143c13 2 27 4 37 4c45 0 61 -25 61 -75c0 -51 -17 -74 -62 -74v0zM286 220h39l19 -80l19 80h40
c2 -35 4 -98 6 -145h-29c0 34 -1 70 -3 104l-20 -82h-27l-20 82h-1c-1 -34 -2 -70 -2 -104h-28c1 47 4 110 7 145v0zM482 73c-40 0 -53 23 -53 74s13 75 53 75s54 -24 54 -75s-14 -74 -54 -74v0zM482 197c-20 0 -24 -17 -24 -50c0 -32 4 -50 24 -50c21 0 25 18 25 50
c0 33 -4 50 -25 50zM472 496c52 0 62 -42 62 -63c0 -31 -31 -49 -52 -52c-72 -8 -124 -31 -166 -72c0 0 73 187 156 187v0zM139 444c94 0 156 -187 156 -187c-41 52 -93 72 -156 72c-31 0 -62 21 -62 52c0 32 21 63 62 63v0zM314 593c67 -65 -19 -243 -19 -243
c7 66 -16 118 -61 161c-22 22 -30 58 -9 81c22 22 59 30 89 1v0z" />
    <glyph glyph-name="period" unicode="." horiz-adv-x="268" 
d="M134 -13c-49 0 -84 37 -84 84s35 84 84 84c48 0 84 -37 84 -84s-36 -84 -84 -84z" />
    <glyph glyph-name="slash" unicode="/" 
d="M101 197c-3 0 -6 0 -9 -1v-98c2 -1 6 -1 9 -1c26 0 31 19 31 50c0 32 -5 50 -31 50v0zM253 161v-24h-40v-38h47v-24h-76v145h76v-25h-47v-34h40zM99 73c-8 0 -23 0 -36 2v143c13 2 27 4 37 4c45 0 61 -25 61 -75c0 -51 -17 -74 -62 -74v0zM286 220h39l19 -80l19 80h40
c2 -35 4 -98 6 -145h-29c0 34 -1 70 -3 104l-20 -82h-27l-20 82h-1c-1 -34 -2 -70 -2 -104h-28c1 47 4 110 7 145v0zM482 73c-40 0 -53 23 -53 74s13 75 53 75s54 -24 54 -75s-14 -74 -54 -74v0zM482 197c-20 0 -24 -17 -24 -50c0 -32 4 -50 24 -50c21 0 25 18 25 50
c0 33 -4 50 -25 50zM472 496c52 0 62 -42 62 -63c0 -31 -31 -49 -52 -52c-72 -8 -124 -31 -166 -72c0 0 73 187 156 187v0zM139 444c94 0 156 -187 156 -187c-41 52 -93 72 -156 72c-31 0 -62 21 -62 52c0 32 21 63 62 63v0zM314 593c67 -65 -19 -243 -19 -243
c7 66 -16 118 -61 161c-22 22 -30 58 -9 81c22 22 59 30 89 1v0z" />
    <glyph glyph-name="zero" unicode="0" horiz-adv-x="553" 
d="M276 -15c-140 0 -231 119 -231 373c0 253 91 372 231 372s232 -119 232 -372c0 -254 -92 -373 -232 -373zM276 115c62 0 94 75 94 243c0 167 -32 243 -94 243c-61 0 -93 -76 -93 -243c0 -168 32 -243 93 -243z" />
    <glyph glyph-name="one" unicode="1" horiz-adv-x="395" 
d="M158 0v593h-123v122h260v-715h-137z" />
    <glyph glyph-name="two" unicode="2" horiz-adv-x="518" 
d="M28 0v63l253 328c39 51 54 86 54 126c0 50 -35 87 -88 87c-52 0 -91 -35 -111 -105l-118 49c36 109 112 182 237 182c127 0 218 -87 218 -204c0 -74 -40 -133 -90 -199l-156 -205h241v-122h-440z" />
    <glyph glyph-name="three" unicode="3" horiz-adv-x="500" 
d="M352 367c66 -36 103 -97 103 -172c0 -121 -89 -210 -233 -210c-100 0 -178 51 -217 120l87 70c36 -45 72 -66 119 -66c61 0 107 46 107 102c0 64 -41 109 -142 109h-43v90h43c95 0 130 47 130 104c0 50 -41 93 -96 93c-40 0 -71 -17 -107 -57l-82 77
c38 59 111 103 201 103c138 0 222 -87 222 -202c0 -67 -33 -125 -92 -161z" />
    <glyph glyph-name="four" unicode="4" 
d="M101 197c-3 0 -6 0 -9 -1v-98c2 -1 6 -1 9 -1c26 0 31 19 31 50c0 32 -5 50 -31 50v0zM253 161v-24h-40v-38h47v-24h-76v145h76v-25h-47v-34h40zM99 73c-8 0 -23 0 -36 2v143c13 2 27 4 37 4c45 0 61 -25 61 -75c0 -51 -17 -74 -62 -74v0zM286 220h39l19 -80l19 80h40
c2 -35 4 -98 6 -145h-29c0 34 -1 70 -3 104l-20 -82h-27l-20 82h-1c-1 -34 -2 -70 -2 -104h-28c1 47 4 110 7 145v0zM482 73c-40 0 -53 23 -53 74s13 75 53 75s54 -24 54 -75s-14 -74 -54 -74v0zM482 197c-20 0 -24 -17 -24 -50c0 -32 4 -50 24 -50c21 0 25 18 25 50
c0 33 -4 50 -25 50zM472 496c52 0 62 -42 62 -63c0 -31 -31 -49 -52 -52c-72 -8 -124 -31 -166 -72c0 0 73 187 156 187v0zM139 444c94 0 156 -187 156 -187c-41 52 -93 72 -156 72c-31 0 -62 21 -62 52c0 32 21 63 62 63v0zM314 593c67 -65 -19 -243 -19 -243
c7 66 -16 118 -61 161c-22 22 -30 58 -9 81c22 22 59 30 89 1v0z" />
    <glyph glyph-name="five" unicode="5" horiz-adv-x="530" 
d="M269 448c128 0 216 -96 216 -224c0 -138 -98 -239 -236 -239c-106 0 -182 57 -221 129l102 71c20 -41 61 -74 113 -74c66 0 112 47 112 109c0 63 -47 109 -116 109c-70 0 -95 -54 -95 -54h-79l5 440h375v-122h-253l-3 -162c22 10 48 17 80 17z" />
    <glyph glyph-name="six" unicode="6" horiz-adv-x="553" 
d="M291 440c127 0 220 -92 220 -221c0 -132 -100 -234 -235 -234c-130 0 -235 103 -235 231c0 47 15 100 39 150l162 349h139l-135 -281c14 4 29 6 45 6zM276 111c60 0 105 45 105 105s-45 106 -105 106s-105 -46 -105 -106s45 -105 105 -105z" />
    <glyph glyph-name="seven" unicode="7" horiz-adv-x="488" 
d="M23 715h442v-62l-239 -653h-146l221 586h-278v129z" />
    <glyph glyph-name="eight" unicode="8" horiz-adv-x="553" 
d="M412 370c58 -36 96 -95 96 -170c0 -122 -99 -215 -232 -215c-132 0 -231 93 -231 215c0 74 38 134 96 170c-52 34 -85 89 -85 156c0 116 94 204 220 204s220 -88 220 -204c0 -67 -33 -122 -84 -156zM276 604c-51 0 -90 -38 -90 -89s39 -89 90 -89c52 0 90 38 90 89
s-38 89 -90 89zM276 111c58 0 102 43 102 100s-44 101 -102 101c-57 0 -101 -44 -101 -101s44 -100 101 -100z" />
    <glyph glyph-name="nine" unicode="9" horiz-adv-x="553" 
d="M277 730c130 0 235 -103 235 -231c0 -47 -15 -100 -39 -150l-162 -349h-139l135 281c-14 -4 -29 -6 -45 -6c-127 0 -220 92 -220 221c0 132 100 234 235 234zM172 499c0 -60 45 -106 105 -106s105 46 105 106s-45 105 -105 105s-105 -45 -105 -105z" />
    <glyph glyph-name="colon" unicode=":" horiz-adv-x="268" 
d="M134 307c-49 0 -84 37 -84 84s35 84 84 84c48 0 84 -37 84 -84s-36 -84 -84 -84zM134 -13c-49 0 -84 37 -84 84s35 84 84 84c48 0 84 -37 84 -84s-36 -84 -84 -84z" />
    <glyph glyph-name="semicolon" unicode=";" horiz-adv-x="268" 
d="M134 307c-49 0 -84 37 -84 84s35 84 84 84c48 0 84 -37 84 -84s-36 -84 -84 -84zM50 -150l24 300h131l-40 -300h-115z" />
    <glyph glyph-name="less" unicode="&#x3c;" 
d="M101 197c-3 0 -6 0 -9 -1v-98c2 -1 6 -1 9 -1c26 0 31 19 31 50c0 32 -5 50 -31 50v0zM253 161v-24h-40v-38h47v-24h-76v145h76v-25h-47v-34h40zM99 73c-8 0 -23 0 -36 2v143c13 2 27 4 37 4c45 0 61 -25 61 -75c0 -51 -17 -74 -62 -74v0zM286 220h39l19 -80l19 80h40
c2 -35 4 -98 6 -145h-29c0 34 -1 70 -3 104l-20 -82h-27l-20 82h-1c-1 -34 -2 -70 -2 -104h-28c1 47 4 110 7 145v0zM482 73c-40 0 -53 23 -53 74s13 75 53 75s54 -24 54 -75s-14 -74 -54 -74v0zM482 197c-20 0 -24 -17 -24 -50c0 -32 4 -50 24 -50c21 0 25 18 25 50
c0 33 -4 50 -25 50zM472 496c52 0 62 -42 62 -63c0 -31 -31 -49 -52 -52c-72 -8 -124 -31 -166 -72c0 0 73 187 156 187v0zM139 444c94 0 156 -187 156 -187c-41 52 -93 72 -156 72c-31 0 -62 21 -62 52c0 32 21 63 62 63v0zM314 593c67 -65 -19 -243 -19 -243
c7 66 -16 118 -61 161c-22 22 -30 58 -9 81c22 22 59 30 89 1v0z" />
    <glyph glyph-name="equal" unicode="=" 
d="M101 197c-3 0 -6 0 -9 -1v-98c2 -1 6 -1 9 -1c26 0 31 19 31 50c0 32 -5 50 -31 50v0zM253 161v-24h-40v-38h47v-24h-76v145h76v-25h-47v-34h40zM99 73c-8 0 -23 0 -36 2v143c13 2 27 4 37 4c45 0 61 -25 61 -75c0 -51 -17 -74 -62 -74v0zM286 220h39l19 -80l19 80h40
c2 -35 4 -98 6 -145h-29c0 34 -1 70 -3 104l-20 -82h-27l-20 82h-1c-1 -34 -2 -70 -2 -104h-28c1 47 4 110 7 145v0zM482 73c-40 0 -53 23 -53 74s13 75 53 75s54 -24 54 -75s-14 -74 -54 -74v0zM482 197c-20 0 -24 -17 -24 -50c0 -32 4 -50 24 -50c21 0 25 18 25 50
c0 33 -4 50 -25 50zM472 496c52 0 62 -42 62 -63c0 -31 -31 -49 -52 -52c-72 -8 -124 -31 -166 -72c0 0 73 187 156 187v0zM139 444c94 0 156 -187 156 -187c-41 52 -93 72 -156 72c-31 0 -62 21 -62 52c0 32 21 63 62 63v0zM314 593c67 -65 -19 -243 -19 -243
c7 66 -16 118 -61 161c-22 22 -30 58 -9 81c22 22 59 30 89 1v0z" />
    <glyph glyph-name="greater" unicode="&#x3e;" 
d="M101 197c-3 0 -6 0 -9 -1v-98c2 -1 6 -1 9 -1c26 0 31 19 31 50c0 32 -5 50 -31 50v0zM253 161v-24h-40v-38h47v-24h-76v145h76v-25h-47v-34h40zM99 73c-8 0 -23 0 -36 2v143c13 2 27 4 37 4c45 0 61 -25 61 -75c0 -51 -17 -74 -62 -74v0zM286 220h39l19 -80l19 80h40
c2 -35 4 -98 6 -145h-29c0 34 -1 70 -3 104l-20 -82h-27l-20 82h-1c-1 -34 -2 -70 -2 -104h-28c1 47 4 110 7 145v0zM482 73c-40 0 -53 23 -53 74s13 75 53 75s54 -24 54 -75s-14 -74 -54 -74v0zM482 197c-20 0 -24 -17 -24 -50c0 -32 4 -50 24 -50c21 0 25 18 25 50
c0 33 -4 50 -25 50zM472 496c52 0 62 -42 62 -63c0 -31 -31 -49 -52 -52c-72 -8 -124 -31 -166 -72c0 0 73 187 156 187v0zM139 444c94 0 156 -187 156 -187c-41 52 -93 72 -156 72c-31 0 -62 21 -62 52c0 32 21 63 62 63v0zM314 593c67 -65 -19 -243 -19 -243
c7 66 -16 118 -61 161c-22 22 -30 58 -9 81c22 22 59 30 89 1v0z" />
    <glyph glyph-name="question" unicode="?" horiz-adv-x="500" 
d="M177 230l116 212c23 41 38 73 38 104c0 36 -29 70 -81 70c-55 0 -89 -38 -89 -93h-126c0 123 78 207 221 207c130 0 209 -77 209 -177c0 -54 -20 -101 -61 -169l-92 -154h-135zM203 -13c-49 0 -84 37 -84 84s35 84 84 84c48 0 83 -37 83 -84s-35 -84 -83 -84z" />
    <glyph glyph-name="at" unicode="@" 
d="M101 197c-3 0 -6 0 -9 -1v-98c2 -1 6 -1 9 -1c26 0 31 19 31 50c0 32 -5 50 -31 50v0zM253 161v-24h-40v-38h47v-24h-76v145h76v-25h-47v-34h40zM99 73c-8 0 -23 0 -36 2v143c13 2 27 4 37 4c45 0 61 -25 61 -75c0 -51 -17 -74 -62 -74v0zM286 220h39l19 -80l19 80h40
c2 -35 4 -98 6 -145h-29c0 34 -1 70 -3 104l-20 -82h-27l-20 82h-1c-1 -34 -2 -70 -2 -104h-28c1 47 4 110 7 145v0zM482 73c-40 0 -53 23 -53 74s13 75 53 75s54 -24 54 -75s-14 -74 -54 -74v0zM482 197c-20 0 -24 -17 -24 -50c0 -32 4 -50 24 -50c21 0 25 18 25 50
c0 33 -4 50 -25 50zM472 496c52 0 62 -42 62 -63c0 -31 -31 -49 -52 -52c-72 -8 -124 -31 -166 -72c0 0 73 187 156 187v0zM139 444c94 0 156 -187 156 -187c-41 52 -93 72 -156 72c-31 0 -62 21 -62 52c0 32 21 63 62 63v0zM314 593c67 -65 -19 -243 -19 -243
c7 66 -16 118 -61 161c-22 22 -30 58 -9 81c22 22 59 30 89 1v0z" />
    <glyph glyph-name="A" unicode="A" horiz-adv-x="740" 
d="M567 0l-64 169h-278l-66 -169h-154l302 715h127l301 -715h-168zM273 291h184l-91 237z" />
    <glyph glyph-name="B" unicode="B" horiz-adv-x="553" 
d="M392 368c73 -31 116 -96 116 -173c0 -111 -85 -195 -218 -195h-220v715h223c120 0 195 -86 195 -186c0 -67 -35 -129 -96 -161zM251 597h-36v-174h36c60 0 95 36 95 87s-35 87 -95 87zM262 118c66 0 104 39 104 96c0 56 -38 95 -104 95h-47v-191h47z" />
    <glyph glyph-name="C" unicode="C" horiz-adv-x="761" 
d="M411 -15c-211 0 -376 163 -376 373c0 209 165 372 376 372c134 0 242 -66 310 -168l-114 -81c-42 67 -111 112 -196 112c-130 0 -231 -103 -231 -235c0 -133 101 -236 231 -236c86 0 156 47 198 116l117 -78c-68 -106 -178 -175 -315 -175z" />
    <glyph glyph-name="D" unicode="D" horiz-adv-x="655" 
d="M70 0v715h200c232 0 350 -154 350 -357c0 -204 -118 -358 -350 -358h-200zM215 133h55c142 0 205 92 205 225c0 132 -63 224 -205 224h-55v-449z" />
    <glyph glyph-name="E" unicode="E" horiz-adv-x="543" 
d="M215 133h285v-133h-430v715h400v-133h-255v-152h280v-123h-280v-174z" />
    <glyph glyph-name="F" unicode="F" horiz-adv-x="530" 
d="M495 430v-123h-280v-307h-145v715h400v-133h-255v-152h280z" />
    <glyph glyph-name="G" unicode="G" horiz-adv-x="804" 
d="M767 393c0 0 2 -22 2 -40c0 -207 -148 -368 -357 -368c-212 0 -377 163 -377 373c0 209 165 372 382 372c108 0 202 -39 268 -103l-95 -102c-42 41 -103 68 -173 68c-136 0 -237 -103 -237 -235s101 -236 232 -236c104 0 178 60 207 146h-318v125h466z" />
    <glyph glyph-name="H" unicode="H" horiz-adv-x="760" 
d="M545 715h145v-715h-145v302h-330v-302h-145v715h145v-276h330v276z" />
    <glyph glyph-name="I" unicode="I" horiz-adv-x="305" 
d="M80 0v715h145v-715h-145z" />
    <glyph glyph-name="J" unicode="J" horiz-adv-x="505" 
d="M207 -15c-95 0 -161 47 -202 120l123 74c16 -29 42 -49 78 -49c56 0 90 42 90 105v480h145v-484c0 -152 -91 -246 -234 -246z" />
    <glyph glyph-name="K" unicode="K" horiz-adv-x="643" 
d="M638 0h-180l-243 330v-330h-145v715h145v-299l223 299h180l-265 -339z" />
    <glyph glyph-name="L" unicode="L" horiz-adv-x="513" 
d="M215 137h285v-137h-430v715h145v-578z" />
    <glyph glyph-name="M" unicode="M" horiz-adv-x="890" 
d="M70 0v715h126l253 -505l253 505h118v-715h-141v398l-203 -398h-62l-203 398v-398h-141z" />
    <glyph glyph-name="N" unicode="N" horiz-adv-x="740" 
d="M544 0l-331 460v-460h-143v715h126l332 -452v452h142v-715h-126z" />
    <glyph glyph-name="O" unicode="O" horiz-adv-x="823" 
d="M411 -15c-211 0 -376 163 -376 373c0 209 165 372 376 372c212 0 377 -163 377 -372c0 -210 -165 -373 -377 -373zM411 122c131 0 232 103 232 236c0 132 -101 235 -232 235c-130 0 -231 -103 -231 -235c0 -133 101 -236 231 -236z" />
    <glyph glyph-name="P" unicode="P" horiz-adv-x="553" 
d="M291 715c138 0 227 -99 227 -216s-89 -215 -227 -215h-76v-284h-145v715h221zM276 406c60 0 100 39 100 92c0 52 -40 91 -100 91h-61v-183h61z" />
    <glyph glyph-name="Q" unicode="Q" horiz-adv-x="823" 
d="M788 358c0 -188 -132 -338 -312 -368v-190h-130v190c-179 30 -311 180 -311 368c0 209 165 372 376 372c212 0 377 -163 377 -372zM476 131c98 28 167 117 167 227c0 132 -101 235 -232 235c-130 0 -231 -103 -231 -235c0 -110 69 -199 166 -227v132h130v-132z" />
    <glyph glyph-name="R" unicode="R" 
d="M427 0l-192 286h-20v-286h-145v715h223c137 0 225 -98 225 -215c0 -88 -51 -165 -135 -198l215 -302h-171zM270 589h-55v-196h55c63 0 106 42 106 98s-43 98 -106 98z" />
    <glyph glyph-name="S" unicode="S" horiz-adv-x="545" 
d="M276 -15c-164 0 -248 115 -248 115l84 95s72 -85 161 -85c61 0 92 38 92 83c0 47 -37 76 -118 114c-121 56 -194 120 -194 228c0 112 88 195 230 195c126 0 207 -76 207 -76l-80 -101s-50 53 -125 53c-56 0 -87 -30 -87 -70s33 -71 110 -106c124 -56 202 -115 202 -231
c0 -118 -89 -214 -234 -214z" />
    <glyph glyph-name="T" unicode="T" horiz-adv-x="535" 
d="M523 715v-137h-183v-578h-145v578h-182v137h510z" />
    <glyph glyph-name="U" unicode="U" horiz-adv-x="653" 
d="M326 -15c-158 0 -262 105 -262 271v459h145v-455c0 -80 44 -130 117 -130c74 0 118 50 118 130v455h145v-459c0 -166 -104 -271 -263 -271z" />
    <glyph glyph-name="V" unicode="V" horiz-adv-x="590" 
d="M232 0l-227 715h157l141 -470l140 470h142l-227 -715h-126z" />
    <glyph glyph-name="W" unicode="W" horiz-adv-x="1040" 
d="M889 715h146l-235 -715h-118l-162 483l-161 -483h-118l-236 715h161l148 -469l154 469h118l155 -473z" />
    <glyph glyph-name="X" unicode="X" horiz-adv-x="615" 
d="M5 0l220 366l-210 349h166l127 -219l126 219h166l-209 -349l219 -366h-166l-136 236l-137 -236h-166z" />
    <glyph glyph-name="Y" unicode="Y" horiz-adv-x="610" 
d="M233 0v334l-238 381h170l148 -237l147 237h155l-237 -381v-334h-145z" />
    <glyph glyph-name="Z" unicode="Z" horiz-adv-x="688" 
d="M50 0v63l363 519h-363v133h588v-62l-363 -520h363v-133h-588z" />
    <glyph glyph-name="bracketleft" unicode="[" 
d="M101 197c-3 0 -6 0 -9 -1v-98c2 -1 6 -1 9 -1c26 0 31 19 31 50c0 32 -5 50 -31 50v0zM253 161v-24h-40v-38h47v-24h-76v145h76v-25h-47v-34h40zM99 73c-8 0 -23 0 -36 2v143c13 2 27 4 37 4c45 0 61 -25 61 -75c0 -51 -17 -74 -62 -74v0zM286 220h39l19 -80l19 80h40
c2 -35 4 -98 6 -145h-29c0 34 -1 70 -3 104l-20 -82h-27l-20 82h-1c-1 -34 -2 -70 -2 -104h-28c1 47 4 110 7 145v0zM482 73c-40 0 -53 23 -53 74s13 75 53 75s54 -24 54 -75s-14 -74 -54 -74v0zM482 197c-20 0 -24 -17 -24 -50c0 -32 4 -50 24 -50c21 0 25 18 25 50
c0 33 -4 50 -25 50zM472 496c52 0 62 -42 62 -63c0 -31 -31 -49 -52 -52c-72 -8 -124 -31 -166 -72c0 0 73 187 156 187v0zM139 444c94 0 156 -187 156 -187c-41 52 -93 72 -156 72c-31 0 -62 21 -62 52c0 32 21 63 62 63v0zM314 593c67 -65 -19 -243 -19 -243
c7 66 -16 118 -61 161c-22 22 -30 58 -9 81c22 22 59 30 89 1v0z" />
    <glyph glyph-name="backslash" unicode="\" 
d="M101 197c-3 0 -6 0 -9 -1v-98c2 -1 6 -1 9 -1c26 0 31 19 31 50c0 32 -5 50 -31 50v0zM253 161v-24h-40v-38h47v-24h-76v145h76v-25h-47v-34h40zM99 73c-8 0 -23 0 -36 2v143c13 2 27 4 37 4c45 0 61 -25 61 -75c0 -51 -17 -74 -62 -74v0zM286 220h39l19 -80l19 80h40
c2 -35 4 -98 6 -145h-29c0 34 -1 70 -3 104l-20 -82h-27l-20 82h-1c-1 -34 -2 -70 -2 -104h-28c1 47 4 110 7 145v0zM482 73c-40 0 -53 23 -53 74s13 75 53 75s54 -24 54 -75s-14 -74 -54 -74v0zM482 197c-20 0 -24 -17 -24 -50c0 -32 4 -50 24 -50c21 0 25 18 25 50
c0 33 -4 50 -25 50zM472 496c52 0 62 -42 62 -63c0 -31 -31 -49 -52 -52c-72 -8 -124 -31 -166 -72c0 0 73 187 156 187v0zM139 444c94 0 156 -187 156 -187c-41 52 -93 72 -156 72c-31 0 -62 21 -62 52c0 32 21 63 62 63v0zM314 593c67 -65 -19 -243 -19 -243
c7 66 -16 118 -61 161c-22 22 -30 58 -9 81c22 22 59 30 89 1v0z" />
    <glyph glyph-name="bracketright" unicode="]" 
d="M101 197c-3 0 -6 0 -9 -1v-98c2 -1 6 -1 9 -1c26 0 31 19 31 50c0 32 -5 50 -31 50v0zM253 161v-24h-40v-38h47v-24h-76v145h76v-25h-47v-34h40zM99 73c-8 0 -23 0 -36 2v143c13 2 27 4 37 4c45 0 61 -25 61 -75c0 -51 -17 -74 -62 -74v0zM286 220h39l19 -80l19 80h40
c2 -35 4 -98 6 -145h-29c0 34 -1 70 -3 104l-20 -82h-27l-20 82h-1c-1 -34 -2 -70 -2 -104h-28c1 47 4 110 7 145v0zM482 73c-40 0 -53 23 -53 74s13 75 53 75s54 -24 54 -75s-14 -74 -54 -74v0zM482 197c-20 0 -24 -17 -24 -50c0 -32 4 -50 24 -50c21 0 25 18 25 50
c0 33 -4 50 -25 50zM472 496c52 0 62 -42 62 -63c0 -31 -31 -49 -52 -52c-72 -8 -124 -31 -166 -72c0 0 73 187 156 187v0zM139 444c94 0 156 -187 156 -187c-41 52 -93 72 -156 72c-31 0 -62 21 -62 52c0 32 21 63 62 63v0zM314 593c67 -65 -19 -243 -19 -243
c7 66 -16 118 -61 161c-22 22 -30 58 -9 81c22 22 59 30 89 1v0z" />
    <glyph glyph-name="asciicircum" unicode="^" 
d="M101 197c-3 0 -6 0 -9 -1v-98c2 -1 6 -1 9 -1c26 0 31 19 31 50c0 32 -5 50 -31 50v0zM253 161v-24h-40v-38h47v-24h-76v145h76v-25h-47v-34h40zM99 73c-8 0 -23 0 -36 2v143c13 2 27 4 37 4c45 0 61 -25 61 -75c0 -51 -17 -74 -62 -74v0zM286 220h39l19 -80l19 80h40
c2 -35 4 -98 6 -145h-29c0 34 -1 70 -3 104l-20 -82h-27l-20 82h-1c-1 -34 -2 -70 -2 -104h-28c1 47 4 110 7 145v0zM482 73c-40 0 -53 23 -53 74s13 75 53 75s54 -24 54 -75s-14 -74 -54 -74v0zM482 197c-20 0 -24 -17 -24 -50c0 -32 4 -50 24 -50c21 0 25 18 25 50
c0 33 -4 50 -25 50zM472 496c52 0 62 -42 62 -63c0 -31 -31 -49 -52 -52c-72 -8 -124 -31 -166 -72c0 0 73 187 156 187v0zM139 444c94 0 156 -187 156 -187c-41 52 -93 72 -156 72c-31 0 -62 21 -62 52c0 32 21 63 62 63v0zM314 593c67 -65 -19 -243 -19 -243
c7 66 -16 118 -61 161c-22 22 -30 58 -9 81c22 22 59 30 89 1v0z" />
    <glyph glyph-name="underscore" unicode="_" 
d="M101 197c-3 0 -6 0 -9 -1v-98c2 -1 6 -1 9 -1c26 0 31 19 31 50c0 32 -5 50 -31 50v0zM253 161v-24h-40v-38h47v-24h-76v145h76v-25h-47v-34h40zM99 73c-8 0 -23 0 -36 2v143c13 2 27 4 37 4c45 0 61 -25 61 -75c0 -51 -17 -74 -62 -74v0zM286 220h39l19 -80l19 80h40
c2 -35 4 -98 6 -145h-29c0 34 -1 70 -3 104l-20 -82h-27l-20 82h-1c-1 -34 -2 -70 -2 -104h-28c1 47 4 110 7 145v0zM482 73c-40 0 -53 23 -53 74s13 75 53 75s54 -24 54 -75s-14 -74 -54 -74v0zM482 197c-20 0 -24 -17 -24 -50c0 -32 4 -50 24 -50c21 0 25 18 25 50
c0 33 -4 50 -25 50zM472 496c52 0 62 -42 62 -63c0 -31 -31 -49 -52 -52c-72 -8 -124 -31 -166 -72c0 0 73 187 156 187v0zM139 444c94 0 156 -187 156 -187c-41 52 -93 72 -156 72c-31 0 -62 21 -62 52c0 32 21 63 62 63v0zM314 593c67 -65 -19 -243 -19 -243
c7 66 -16 118 -61 161c-22 22 -30 58 -9 81c22 22 59 30 89 1v0z" />
    <glyph glyph-name="grave" unicode="`" 
d="M101 197c-3 0 -6 0 -9 -1v-98c2 -1 6 -1 9 -1c26 0 31 19 31 50c0 32 -5 50 -31 50v0zM253 161v-24h-40v-38h47v-24h-76v145h76v-25h-47v-34h40zM99 73c-8 0 -23 0 -36 2v143c13 2 27 4 37 4c45 0 61 -25 61 -75c0 -51 -17 -74 -62 -74v0zM286 220h39l19 -80l19 80h40
c2 -35 4 -98 6 -145h-29c0 34 -1 70 -3 104l-20 -82h-27l-20 82h-1c-1 -34 -2 -70 -2 -104h-28c1 47 4 110 7 145v0zM482 73c-40 0 -53 23 -53 74s13 75 53 75s54 -24 54 -75s-14 -74 -54 -74v0zM482 197c-20 0 -24 -17 -24 -50c0 -32 4 -50 24 -50c21 0 25 18 25 50
c0 33 -4 50 -25 50zM472 496c52 0 62 -42 62 -63c0 -31 -31 -49 -52 -52c-72 -8 -124 -31 -166 -72c0 0 73 187 156 187v0zM139 444c94 0 156 -187 156 -187c-41 52 -93 72 -156 72c-31 0 -62 21 -62 52c0 32 21 63 62 63v0zM314 593c67 -65 -19 -243 -19 -243
c7 66 -16 118 -61 161c-22 22 -30 58 -9 81c22 22 59 30 89 1v0z" />
    <glyph glyph-name="a" unicode="a" horiz-adv-x="586" 
d="M406 463h123v-463h-123l-4 59c-30 -46 -78 -74 -146 -74c-129 0 -227 108 -227 246c0 139 98 247 227 247c68 0 116 -28 146 -74zM279 111c68 0 120 53 120 120c0 68 -52 121 -120 121s-120 -53 -120 -121c0 -67 52 -120 120 -120z" />
    <glyph glyph-name="b" unicode="b" horiz-adv-x="586" 
d="M330 478c129 0 227 -108 227 -247c0 -138 -98 -246 -227 -246c-68 0 -116 28 -146 74l-4 -59h-123v740h130v-332c30 44 77 70 143 70zM307 111c68 0 120 53 120 120c0 68 -52 121 -120 121s-120 -53 -120 -121c0 -67 52 -120 120 -120z" />
    <glyph glyph-name="c" unicode="c" horiz-adv-x="500" 
d="M279 -15c-141 0 -250 108 -250 246c0 139 109 247 250 247c88 0 160 -43 204 -108l-105 -70c-22 31 -57 52 -99 52c-68 0 -120 -53 -120 -121c0 -67 52 -120 120 -120c45 0 82 23 102 57l108 -63c-43 -71 -117 -120 -210 -120z" />
    <glyph glyph-name="d" unicode="d" horiz-adv-x="586" 
d="M399 740h130v-740h-123l-4 59c-30 -46 -78 -74 -146 -74c-129 0 -227 108 -227 246c0 139 98 247 227 247c66 0 113 -26 143 -70v332zM279 111c68 0 120 53 120 120c0 68 -52 121 -120 121s-120 -53 -120 -121c0 -67 52 -120 120 -120z" />
    <glyph glyph-name="e" unicode="e" horiz-adv-x="550" 
d="M522 242c0 -18 -3 -34 -3 -34h-358c10 -61 58 -101 118 -101c49 0 91 26 109 62l114 -50c-42 -81 -124 -134 -223 -134c-141 0 -250 108 -250 247c0 138 108 246 249 246s244 -105 244 -236zM278 373c-50 0 -91 -27 -109 -78h216c-17 51 -55 78 -107 78z" />
    <glyph glyph-name="f" unicode="f" horiz-adv-x="355" 
d="M308 633c-49 0 -75 -31 -75 -82v-88h100v-122h-100v-341h-130v341h-80v122h80v99c0 120 70 193 183 193c47 0 69 -10 69 -10v-120s-19 8 -47 8z" />
    <glyph glyph-name="g" unicode="g" horiz-adv-x="586" 
d="M406 463h123v-462c0 -144 -109 -236 -249 -236c-132 0 -235 81 -235 196h130c0 -45 43 -82 107 -82c65 0 117 45 117 122v67c-30 -42 -77 -68 -143 -68c-129 0 -227 107 -227 239s98 239 227 239c68 0 116 -28 146 -73zM279 115c68 0 120 52 120 120s-52 121 -120 121
s-120 -53 -120 -121s52 -120 120 -120z" />
    <glyph glyph-name="h" unicode="h" horiz-adv-x="511" 
d="M319 478c87 0 141 -54 141 -148v-330h-130v283c0 47 -23 68 -61 68c-29 0 -58 -19 -81 -53v-298h-130v740h130v-325c36 40 75 63 131 63z" />
    <glyph glyph-name="i" unicode="i" horiz-adv-x="258" 
d="M129 550c-49 0 -84 36 -84 80s35 80 84 80c48 0 84 -36 84 -80s-36 -80 -84 -80zM64 0v463h130v-463h-130z" />
    <glyph glyph-name="j" unicode="j" horiz-adv-x="258" 
d="M129 550c-49 0 -84 36 -84 80s35 80 84 80c48 0 84 -36 84 -80s-36 -80 -84 -80zM64 -220v683h130v-683h-130z" />
    <glyph glyph-name="k" unicode="k" horiz-adv-x="479" 
d="M476 0h-152l-136 196v-196h-130v740h130v-451l126 174h152l-170 -214z" />
    <glyph glyph-name="l" unicode="l" horiz-adv-x="258" 
d="M64 0v740h130v-740h-130z" />
    <glyph glyph-name="m" unicode="m" horiz-adv-x="784" 
d="M591 478c87 0 142 -54 142 -148v-330h-130v283c0 47 -23 68 -61 68c-30 0 -59 -19 -82 -53v-298h-130v283c0 47 -23 68 -61 68c-29 0 -58 -19 -81 -53v-298h-130v463h122l4 -52c38 42 77 67 135 67c62 0 108 -28 129 -78c40 49 81 78 143 78z" />
    <glyph glyph-name="n" unicode="n" horiz-adv-x="511" 
d="M319 478c87 0 141 -54 141 -148v-330h-130v283c0 47 -23 68 -61 68c-29 0 -58 -19 -81 -53v-298h-130v463h122l4 -52c38 42 77 67 135 67z" />
    <glyph glyph-name="o" unicode="o" horiz-adv-x="558" 
d="M279 -15c-141 0 -250 108 -250 246c0 139 109 247 250 247s250 -108 250 -247c0 -138 -109 -246 -250 -246zM279 111c68 0 120 53 120 120c0 68 -52 121 -120 121s-120 -53 -120 -121c0 -67 52 -120 120 -120z" />
    <glyph glyph-name="p" unicode="p" horiz-adv-x="586" 
d="M330 478c129 0 227 -108 227 -247c0 -138 -98 -246 -227 -246c-66 0 -113 26 -143 69v-274h-130v683h123l4 -59c30 46 78 74 146 74zM307 111c68 0 120 53 120 120c0 68 -52 121 -120 121s-120 -53 -120 -121c0 -67 52 -120 120 -120z" />
    <glyph glyph-name="q" unicode="q" horiz-adv-x="586" 
d="M406 463h123v-683h-130v274c-30 -43 -77 -69 -143 -69c-129 0 -227 108 -227 246c0 139 98 247 227 247c68 0 116 -28 146 -74zM279 111c68 0 120 53 120 120c0 68 -52 121 -120 121s-120 -53 -120 -121c0 -67 52 -120 120 -120z" />
    <glyph glyph-name="r" unicode="r" horiz-adv-x="429" 
d="M295 478c71 0 112 -45 134 -121l-122 -44c-12 32 -28 46 -51 46c-25 0 -45 -16 -68 -63v-296h-130v463h122l4 -52c37 47 68 67 111 67z" />
    <glyph glyph-name="s" unicode="s" horiz-adv-x="403" 
d="M207 -15c-118 0 -178 79 -178 79l63 79s57 -57 111 -57c32 0 47 18 47 39c0 24 -18 41 -70 63c-82 33 -133 79 -133 151c0 83 70 139 165 139c96 0 152 -53 152 -53l-61 -84s-43 37 -87 37c-31 0 -45 -16 -45 -34c0 -22 18 -38 65 -57c84 -36 138 -78 138 -155
c0 -87 -70 -147 -167 -147z" />
    <glyph glyph-name="t" unicode="t" horiz-adv-x="355" 
d="M333 463v-122h-100v-341h-130v341h-80v122h80v220h130v-220h100z" />
    <glyph glyph-name="u" unicode="u" horiz-adv-x="505" 
d="M253 -15c-116 0 -202 79 -202 201v277h130v-279c0 -44 30 -73 72 -73s71 29 71 73v279h130v-277c0 -122 -86 -201 -201 -201z" />
    <glyph glyph-name="v" unicode="v" horiz-adv-x="480" 
d="M184 0l-181 463h145l100 -285l99 285h131l-182 -463h-112z" />
    <glyph glyph-name="w" unicode="w" horiz-adv-x="728" 
d="M594 463h131l-173 -463h-103l-85 273l-85 -273h-104l-172 463h145l91 -268l81 268h103l81 -266z" />
    <glyph glyph-name="x" unicode="x" horiz-adv-x="458" 
d="M3 0l153 235l-148 228h146l75 -121l74 121h147l-148 -228l153 -235h-147l-79 128l-80 -128h-146z" />
    <glyph glyph-name="y" unicode="y" horiz-adv-x="480" 
d="M347 463h131l-272 -683h-131l101 246l-173 437h145l97 -274z" />
    <glyph glyph-name="z" unicode="z" horiz-adv-x="455" 
d="M41 0v63l202 285h-202v115h373v-63l-202 -285h202v-115h-373z" />
    <glyph glyph-name="braceleft" unicode="{" 
d="M101 197c-3 0 -6 0 -9 -1v-98c2 -1 6 -1 9 -1c26 0 31 19 31 50c0 32 -5 50 -31 50v0zM253 161v-24h-40v-38h47v-24h-76v145h76v-25h-47v-34h40zM99 73c-8 0 -23 0 -36 2v143c13 2 27 4 37 4c45 0 61 -25 61 -75c0 -51 -17 -74 -62 -74v0zM286 220h39l19 -80l19 80h40
c2 -35 4 -98 6 -145h-29c0 34 -1 70 -3 104l-20 -82h-27l-20 82h-1c-1 -34 -2 -70 -2 -104h-28c1 47 4 110 7 145v0zM482 73c-40 0 -53 23 -53 74s13 75 53 75s54 -24 54 -75s-14 -74 -54 -74v0zM482 197c-20 0 -24 -17 -24 -50c0 -32 4 -50 24 -50c21 0 25 18 25 50
c0 33 -4 50 -25 50zM472 496c52 0 62 -42 62 -63c0 -31 -31 -49 -52 -52c-72 -8 -124 -31 -166 -72c0 0 73 187 156 187v0zM139 444c94 0 156 -187 156 -187c-41 52 -93 72 -156 72c-31 0 -62 21 -62 52c0 32 21 63 62 63v0zM314 593c67 -65 -19 -243 -19 -243
c7 66 -16 118 -61 161c-22 22 -30 58 -9 81c22 22 59 30 89 1v0z" />
    <glyph glyph-name="bar" unicode="|" 
d="M101 197c-3 0 -6 0 -9 -1v-98c2 -1 6 -1 9 -1c26 0 31 19 31 50c0 32 -5 50 -31 50v0zM253 161v-24h-40v-38h47v-24h-76v145h76v-25h-47v-34h40zM99 73c-8 0 -23 0 -36 2v143c13 2 27 4 37 4c45 0 61 -25 61 -75c0 -51 -17 -74 -62 -74v0zM286 220h39l19 -80l19 80h40
c2 -35 4 -98 6 -145h-29c0 34 -1 70 -3 104l-20 -82h-27l-20 82h-1c-1 -34 -2 -70 -2 -104h-28c1 47 4 110 7 145v0zM482 73c-40 0 -53 23 -53 74s13 75 53 75s54 -24 54 -75s-14 -74 -54 -74v0zM482 197c-20 0 -24 -17 -24 -50c0 -32 4 -50 24 -50c21 0 25 18 25 50
c0 33 -4 50 -25 50zM472 496c52 0 62 -42 62 -63c0 -31 -31 -49 -52 -52c-72 -8 -124 -31 -166 -72c0 0 73 187 156 187v0zM139 444c94 0 156 -187 156 -187c-41 52 -93 72 -156 72c-31 0 -62 21 -62 52c0 32 21 63 62 63v0zM314 593c67 -65 -19 -243 -19 -243
c7 66 -16 118 -61 161c-22 22 -30 58 -9 81c22 22 59 30 89 1v0z" />
    <glyph glyph-name="braceright" unicode="}" 
d="M101 197c-3 0 -6 0 -9 -1v-98c2 -1 6 -1 9 -1c26 0 31 19 31 50c0 32 -5 50 -31 50v0zM253 161v-24h-40v-38h47v-24h-76v145h76v-25h-47v-34h40zM99 73c-8 0 -23 0 -36 2v143c13 2 27 4 37 4c45 0 61 -25 61 -75c0 -51 -17 -74 -62 -74v0zM286 220h39l19 -80l19 80h40
c2 -35 4 -98 6 -145h-29c0 34 -1 70 -3 104l-20 -82h-27l-20 82h-1c-1 -34 -2 -70 -2 -104h-28c1 47 4 110 7 145v0zM482 73c-40 0 -53 23 -53 74s13 75 53 75s54 -24 54 -75s-14 -74 -54 -74v0zM482 197c-20 0 -24 -17 -24 -50c0 -32 4 -50 24 -50c21 0 25 18 25 50
c0 33 -4 50 -25 50zM472 496c52 0 62 -42 62 -63c0 -31 -31 -49 -52 -52c-72 -8 -124 -31 -166 -72c0 0 73 187 156 187v0zM139 444c94 0 156 -187 156 -187c-41 52 -93 72 -156 72c-31 0 -62 21 -62 52c0 32 21 63 62 63v0zM314 593c67 -65 -19 -243 -19 -243
c7 66 -16 118 -61 161c-22 22 -30 58 -9 81c22 22 59 30 89 1v0z" />
    <glyph glyph-name="asciitilde" unicode="~" 
d="M101 197c-3 0 -6 0 -9 -1v-98c2 -1 6 -1 9 -1c26 0 31 19 31 50c0 32 -5 50 -31 50v0zM253 161v-24h-40v-38h47v-24h-76v145h76v-25h-47v-34h40zM99 73c-8 0 -23 0 -36 2v143c13 2 27 4 37 4c45 0 61 -25 61 -75c0 -51 -17 -74 -62 -74v0zM286 220h39l19 -80l19 80h40
c2 -35 4 -98 6 -145h-29c0 34 -1 70 -3 104l-20 -82h-27l-20 82h-1c-1 -34 -2 -70 -2 -104h-28c1 47 4 110 7 145v0zM482 73c-40 0 -53 23 -53 74s13 75 53 75s54 -24 54 -75s-14 -74 -54 -74v0zM482 197c-20 0 -24 -17 -24 -50c0 -32 4 -50 24 -50c21 0 25 18 25 50
c0 33 -4 50 -25 50zM472 496c52 0 62 -42 62 -63c0 -31 -31 -49 -52 -52c-72 -8 -124 -31 -166 -72c0 0 73 187 156 187v0zM139 444c94 0 156 -187 156 -187c-41 52 -93 72 -156 72c-31 0 -62 21 -62 52c0 32 21 63 62 63v0zM314 593c67 -65 -19 -243 -19 -243
c7 66 -16 118 -61 161c-22 22 -30 58 -9 81c22 22 59 30 89 1v0z" />
    </font>
</defs>
</svg>
